<svg xmlns="http://www.w3.org/2000/svg" xmlns:xlink="http://www.w3.org/1999/xlink" width="324" height="91" viewBox="0 0 324 91">
  <defs>
    <path id="logo-light-a" d="M0.336015625,25.4146154 C0.336015625,47.3274519 10.7778516,65.9712981 25.3360937,72.8822596 L25.3360937,72.8822596 C39.8947656,65.9712981 50.3219922,47.3274519 50.3219922,25.4146154 L50.3219922,25.4146154 C50.3219922,11.5178365 39.1312109,0.251394231 25.3262109,0.251394231 L25.3262109,0.251394231 C11.5242187,0.251394231 0.336015625,11.5178365 0.336015625,25.4146154 L0.336015625,25.4146154 Z"/>
  </defs>
  <g fill="none" fill-rule="evenodd" transform="translate(1 1)">
    <g fill="#FFF" transform="translate(69 15)">
      <text font-family="TitilliumWeb-Regular, Titillium Web" font-size="16">
        <tspan x=".5" y="57">Città Patrimonio dell&apos;Umanità</tspan>
      </text>
      <text font-family="TitilliumWeb-Bold, Titillium Web" font-size="32" font-weight="bold">
        <tspan x=".5" y="36">Comune di Ferrara</tspan>
      </text>
    </g>
    <path fill="#FEFEFE" d="M27.4846172,89.413399 C12.9259453,82.5020048 2.48453906,63.8581587 2.48453906,41.9453221 C2.48453906,28.048976 13.6727422,16.7825337 27.4751641,16.7825337 C41.2797344,16.7825337 52.4705156,28.048976 52.4705156,41.9453221 C52.4705156,63.8581587 42.0432891,82.5020048 27.4846172,89.413399"/>
    <g transform="translate(2.148 16.531)">
      <mask id="logo-light-b" fill="#fff">
        <use xlink:href="#logo-light-a"/>
      </mask>
      <polygon fill="#1D1D1B" points="-.056 34.795 50.97 34.795 50.97 .035 -.056 .035" mask="url(#logo-light-b)"/>
    </g>
    <g transform="translate(0 .089)">
      <path stroke="#FEFEFE" stroke-width="1.014" d="M27.4846172,89.3246971 C12.9259453,82.4133029 2.48453906,63.7694567 2.48453906,41.8566202 C2.48453906,27.960274 13.6727422,16.6938317 27.4751641,16.6938317 C41.2797344,16.6938317 52.4705156,27.960274 52.4705156,41.8566202 C52.4705156,63.7694567 42.0432891,82.4133029 27.4846172,89.3246971 Z"/>
      <path fill="#FFEC00" d="M5.27471484,11.7273894 C5.27471484,11.0692644 15.239168,10.5245048 27.4869805,10.5245048 C39.7352227,10.5245048 49.6631523,11.0567163 49.6631523,11.7100817 L48.2653789,13.7779183 C48.2653789,13.1223894 38.9888555,12.592774 27.4869805,12.592774 C15.9859648,12.592774 6.66260547,13.1223894 6.66260547,13.7779183 L5.27471484,11.7273894 Z"/>
      <path stroke="#BC8100" stroke-width="1.014" d="M5.27471484,11.7273894 C5.27471484,11.0692644 15.239168,10.5245048 27.4869805,10.5245048 C39.7352227,10.5245048 49.6631523,11.0567163 49.6631523,11.7100817 L48.2653789,13.7779183 C48.2653789,13.1223894 38.9888555,12.592774 27.4869805,12.592774 C15.9859648,12.592774 6.66260547,13.1223894 6.66260547,13.7779183 L5.27471484,11.7273894 Z"/>
      <path fill="#B2A400" d="M6.66260547,13.7780481 C6.66260547,13.1225192 15.9859648,12.5924712 27.4869805,12.5924712 C38.9888555,12.5924712 48.3117852,13.1225192 48.3117852,13.7780481 C48.3117852,14.4335769 38.9888555,14.9662212 27.4869805,14.9662212 C15.9859648,14.9662212 6.66260547,14.4335769 6.66260547,13.7780481"/>
      <path stroke="#BC8100" stroke-linecap="round" stroke-linejoin="round" stroke-width="1.014" d="M6.66260547,13.7780481 C6.66260547,13.1225192 15.9859648,12.5924712 27.4869805,12.5924712 C38.9888555,12.5924712 48.3117852,13.1225192 48.3117852,13.7780481 C48.3117852,14.4335769 38.9888555,14.9662212 27.4869805,14.9662212 C15.9859648,14.9662212 6.66260547,14.4335769 6.66260547,13.7780481 Z"/>
      <path fill="#FFEC00" d="M27.4653242,10.5245913 C39.7131367,10.5245913 49.6750117,11.069351 49.6750117,11.727476 L52.4800117,7.69478365 C51.412668,9.55103365 47.0023555,11.0741106 43.658957,10.2186779 C40.873293,9.28492788 41.6467305,5.51877404 42.0630977,4.8628125 C41.5272773,5.87834135 37.9999727,10.0784856 33.3249727,9.61983173 C29.132082,9.46709135 27.7880195,5.16872596 27.4700508,4.27132212 C27.152082,5.16872596 25.8157539,9.46709135 21.6224336,9.61983173 C16.9525898,10.0784856 13.4205586,5.87834135 12.8868867,4.8628125 C13.3006758,5.51877404 14.0762617,9.28492788 11.2910273,10.2186779 C7.94762891,11.0741106 3.53946484,9.55103365 2.47212109,7.69478365 L5.27454297,11.727476 C5.27454297,11.069351 15.2389961,10.5245913 27.4872383,10.5245913 L27.4653242,10.5245913 Z"/>
      <path stroke="#BC8100" stroke-width="1.014" d="M27.4653242,10.5245913 C39.7131367,10.5245913 49.6750117,11.069351 49.6750117,11.727476 L52.4800117,7.69478365 C51.412668,9.55103365 47.0023555,11.0741106 43.658957,10.2186779 C40.873293,9.28492788 41.6467305,5.51877404 42.0630977,4.8628125 C41.5272773,5.87834135 37.9999727,10.0784856 33.3249727,9.61983173 C29.132082,9.46709135 27.7880195,5.16872596 27.4700508,4.27132212 C27.152082,5.16872596 25.8157539,9.46709135 21.6224336,9.61983173 C16.9525898,10.0784856 13.4205586,5.87834135 12.8868867,4.8628125 C13.3006758,5.51877404 14.0762617,9.28492788 11.2910273,10.2186779 C7.94762891,11.0741106 3.53946484,9.55103365 2.47212109,7.69478365 L5.27454297,11.727476 C5.27454297,11.069351 15.2389961,10.5245913 27.4872383,10.5245913 L27.4653242,10.5245913 Z"/>
      <polygon fill="#FFEC00" points="27.465 4.424 24.587 5.898 25.331 4.848 23.446 4.175 25.331 3.503 24.587 2.452 26.868 3.601 25.754 1.279 26.795 2.028 27.465 .131 28.133 2.028 29.174 1.279 28.057 3.601 30.339 2.452 29.6 3.503 31.482 4.175 29.6 4.848 30.339 5.898"/>
      <polygon stroke="#BC8100" stroke-linecap="round" stroke-linejoin="round" stroke-width="1.014" points="27.465 4.424 24.587 5.898 25.331 4.848 23.446 4.175 25.331 3.503 24.587 2.452 26.868 3.601 25.754 1.279 26.795 2.028 27.465 .131 28.133 2.028 29.174 1.279 28.057 3.601 30.339 2.452 29.6 3.503 31.482 4.175 29.6 4.848 30.339 5.898"/>
      <path fill="#BC8100" d="M26.9485391,4.17535096 C26.9485391,3.88934135 27.1814297,3.65525481 27.4654531,3.65525481 C27.7490469,3.65525481 27.9789297,3.88934135 27.9789297,4.17535096 C27.9789297,4.46136058 27.7490469,4.69544712 27.4654531,4.69544712 C27.1814297,4.69544712 26.9485391,4.46136058 26.9485391,4.17535096"/>
      <path stroke="#BC8100" stroke-width="1.014" d="M26.9485391,4.17535096 C26.9485391,3.88934135 27.1814297,3.65525481 27.4654531,3.65525481 C27.7490469,3.65525481 27.9789297,3.88934135 27.9789297,4.17535096 C27.9789297,4.46136058 27.7490469,4.69544712 27.4654531,4.69544712 C27.1814297,4.69544712 26.9485391,4.46136058 26.9485391,4.17535096 Z"/>
      <polygon fill="#FFEC00" points="13.222 5.558 11.115 7.518 11.589 6.347 10.038 6.001 11.45 5.006 10.755 4.089 12.671 4.843 11.55 2.723 12.449 3.288 12.779 1.286 13.504 3.059 14.243 2.134 13.607 4.636 15.281 3.101 14.806 4.272 16.358 4.616 14.945 5.612 15.641 6.529"/>
      <polygon stroke="#BC8100" stroke-linecap="round" stroke-linejoin="round" stroke-width="1.014" points="13.222 5.558 11.115 7.518 11.589 6.347 10.038 6.001 11.45 5.006 10.755 4.089 12.671 4.843 11.55 2.723 12.449 3.288 12.779 1.286 13.504 3.059 14.243 2.134 13.607 4.636 15.281 3.101 14.806 4.272 16.358 4.616 14.945 5.612 15.641 6.529"/>
      <path fill="#BC8100" d="M12.6861797,5.50873558 C12.6616875,5.24003365 12.8086406,4.98387981 13.0191875,4.93714904 C13.2318828,4.89258173 13.4278203,5.07258173 13.4548906,5.34128365 C13.4841094,5.61214904 13.3371562,5.86873558 13.1244609,5.91287019 C12.9113359,5.95960096 12.7153984,5.77960096 12.6861797,5.50873558"/>
      <path stroke="#BC8100" stroke-width="1.014" d="M12.6861797,5.50873558 C12.6616875,5.24003365 12.8086406,4.98387981 13.0191875,4.93714904 C13.2318828,4.89258173 13.4278203,5.07258173 13.4548906,5.34128365 C13.4841094,5.61214904 13.3371562,5.86873558 13.1244609,5.91287019 C12.9113359,5.95960096 12.7153984,5.77960096 12.6861797,5.50873558 Z"/>
      <polygon fill="#FFEC00" points="2.602 7.885 4.763 7.715 4.115 7.372 4.971 5.977 3.363 6.256 3.459 5.41 2.639 6.867 2.274 4.313 1.826 5.524 .218 4.325"/>
      <polygon stroke="#BC8100" stroke-linecap="round" stroke-linejoin="round" stroke-width="1.014" points="2.602 7.885 4.763 7.715 4.115 7.372 4.971 5.977 3.363 6.256 3.459 5.41 2.639 6.867 2.274 4.313 1.826 5.524 .218 4.325"/>
      <path fill="#BC8100" d="M2.19557422,7.32020192 C1.96311328,7.45823077 1.88705859,7.76154808 2.02928516,7.99347115 C2.16635547,8.22755769 2.48217578,8.27904808 2.71463672,8.13885577 C2.58014453,7.92424038 2.36701953,7.58414423 2.19557422,7.32020192"/>
      <path stroke="#BC8100" stroke-width="1.014" d="M2.19557422,7.32020192 C1.96311328,7.45823077 1.88705859,7.76154808 2.02928516,7.99347115 C2.16635547,8.22755769 2.48217578,8.27904808 2.71463672,8.13885577 C2.58014453,7.92424038 2.36701953,7.58414423 2.19557422,7.32020192 Z"/>
      <polygon fill="#FFEC00" points="41.725 5.558 43.835 7.518 43.36 6.347 44.912 6.001 43.502 5.006 44.192 4.089 42.281 4.843 43.399 2.723 42.504 3.288 42.173 1.286 41.448 3.059 40.707 2.134 41.343 4.636 39.667 3.101 40.144 4.272 38.592 4.616 40.007 5.612 39.312 6.529"/>
      <polygon stroke="#BC8100" stroke-linecap="round" stroke-linejoin="round" stroke-width="1.014" points="41.725 5.558 43.835 7.518 43.36 6.347 44.912 6.001 43.502 5.006 44.192 4.089 42.281 4.843 43.399 2.723 42.504 3.288 42.173 1.286 41.448 3.059 40.707 2.134 41.343 4.636 39.667 3.101 40.144 4.272 38.592 4.616 40.007 5.612 39.312 6.529"/>
      <path fill="#BC8100" d="M42.0677383,5.50873558 C42.0973867,5.24003365 41.9478555,4.98387981 41.7351602,4.93714904 C41.5246133,4.89258173 41.3286758,5.07258173 41.3016055,5.34128365 C41.2723867,5.61214904 41.4214883,5.86873558 41.6346133,5.91287019 C41.8473086,5.95960096 42.0432461,5.77960096 42.0677383,5.50873558"/>
      <path stroke="#BC8100" stroke-width="1.014" d="M42.0677383,5.50873558 C42.0973867,5.24003365 41.9478555,4.98387981 41.7351602,4.93714904 C41.5246133,4.89258173 41.3286758,5.07258173 41.3016055,5.34128365 C41.2723867,5.61214904 41.4214883,5.86873558 41.6346133,5.91287019 C41.8473086,5.95960096 42.0432461,5.77960096 42.0677383,5.50873558 Z"/>
      <polygon fill="#FFEC00" points="52.345 7.885 50.189 7.715 50.835 7.372 49.976 5.977 51.584 6.256 51.494 5.41 52.309 6.867 52.676 4.313 53.121 5.524 54.732 4.325"/>
      <polygon stroke="#BC8100" stroke-linecap="round" stroke-linejoin="round" stroke-width="1.014" points="52.345 7.885 50.189 7.715 50.835 7.372 49.976 5.977 51.584 6.256 51.494 5.41 52.309 6.867 52.676 4.313 53.121 5.524 54.732 4.325"/>
      <path fill="#BC8100" d="M52.7541523,7.32020192 C52.9844648,7.45823077 53.0600898,7.76154808 52.9230195,7.99347115 C52.7838008,8.22755769 52.4705586,8.27904808 52.237668,8.13885577 C52.3725898,7.92424038 52.5805586,7.58414423 52.7541523,7.32020192"/>
      <path stroke="#BC8100" stroke-width="1.014" d="M52.7541523,7.32020192 C52.9844648,7.45823077 53.0600898,7.76154808 52.9230195,7.99347115 C52.7838008,8.22755769 52.4705586,8.27904808 52.237668,8.13885577 C52.3725898,7.92424038 52.5805586,7.58414423 52.7541523,7.32020192 Z"/>
    </g>
  </g>
</svg>
